<svg xmlns="http://www.w3.org/2000/svg" viewBox="0 0 72.11 72.11"><defs><style>.cls-1{fill:#f2f2f2;}.cls-2{fill:#c58c3b;}</style></defs><g id="Calque_2" data-name="Calque 2"><g id="Calque_1-2" data-name="Calque 1"><path class="cls-1" d="M68.28,72.11H3.83A3.84,3.84,0,0,1,0,68.28V3.83A3.84,3.84,0,0,1,3.83,0H68.28a3.84,3.84,0,0,1,3.83,3.83V68.28A3.84,3.84,0,0,1,68.28,72.11ZM3.83,2A1.83,1.83,0,0,0,2,3.83V68.28a1.83,1.83,0,0,0,1.83,1.83H68.28a1.83,1.83,0,0,0,1.83-1.83V3.83A1.83,1.83,0,0,0,68.28,2Z"/><path class="cls-2" d="M28.57,19.3l25,16.75-25,16.76V19.3m0-2a2,2,0,0,0-.94.23,2,2,0,0,0-1.06,1.77V52.81a2,2,0,0,0,1.06,1.77,2.07,2.07,0,0,0,.94.23,1.94,1.94,0,0,0,1.11-.34l25-16.75a2,2,0,0,0,0-3.33l-25-16.75a1.94,1.94,0,0,0-1.11-.34Z"/></g></g></svg>