<svg xmlns="http://www.w3.org/2000/svg" viewBox="0 0 72.11 72.11"><defs><style>.cls-1{fill:#f2f2f2;}.cls-2{fill:#c58c3b;}</style></defs><g id="Calque_2" data-name="Calque 2"><g id="Calque_1-2" data-name="Calque 1"><path class="cls-1" d="M68.28,72.11H3.83A3.84,3.84,0,0,1,0,68.28V3.83A3.84,3.84,0,0,1,3.83,0H68.28a3.84,3.84,0,0,1,3.83,3.83V68.28A3.84,3.84,0,0,1,68.28,72.11ZM3.83,2A1.83,1.83,0,0,0,2,3.83V68.28a1.83,1.83,0,0,0,1.83,1.83H68.28a1.83,1.83,0,0,0,1.83-1.83V3.83A1.83,1.83,0,0,0,68.28,2Z"/><path class="cls-2" d="M36.06,45.13a7,7,0,1,1,6.95-7A7,7,0,0,1,36.06,45.13Zm0-11.9a5,5,0,1,0,4.95,5A5,5,0,0,0,36.06,33.23Z"/><path class="cls-2" d="M36.24,14.8,56.46,30.27h-2.8L50,54H22.09L18.45,30.27H15.64L36.24,14.8m0-2a2,2,0,0,0-1.2.4L14.44,28.67a2,2,0,0,0,1.2,3.6h1.1l3.38,22.06a2,2,0,0,0,2,1.7H50a2,2,0,0,0,2-1.69l3.39-22.07h1.08a2,2,0,0,0,1.22-3.59L37.46,13.21a2,2,0,0,0-1.22-.41Z"/></g></g></svg>