<svg xmlns="http://www.w3.org/2000/svg" viewBox="0 0 72.11 72.11"><defs><style>.cls-1{fill:#f2f2f2;}.cls-2{fill:#c58c3b;}</style></defs><g id="Calque_2" data-name="Calque 2"><g id="Calque_1-2" data-name="Calque 1"><path class="cls-1" d="M68.28,72.11H3.83A3.84,3.84,0,0,1,0,68.28V3.83A3.84,3.84,0,0,1,3.83,0H68.28a3.84,3.84,0,0,1,3.83,3.83V68.28A3.84,3.84,0,0,1,68.28,72.11ZM3.83,2A1.83,1.83,0,0,0,2,3.83V68.28a1.83,1.83,0,0,0,1.83,1.83H68.28a1.83,1.83,0,0,0,1.83-1.83V3.83A1.83,1.83,0,0,0,68.28,2Z"/><path class="cls-2" d="M36.06,20.18A15.88,15.88,0,1,1,20.18,36.06,15.88,15.88,0,0,1,36.06,20.18m0-2A17.88,17.88,0,1,0,53.93,36.06,17.9,17.9,0,0,0,36.06,18.18Z"/><path class="cls-1" d="M62,10.58H56.66a1,1,0,0,1,0-2H62a1,1,0,0,1,0,2Z"/></g></g></svg>