<svg xmlns="http://www.w3.org/2000/svg" viewBox="0 0 1147.45 577.49"><defs><style>.cls-1{font-size:89.12px;font-family:Lato-Light, Lato;font-weight:300;}.cls-1,.cls-2{fill:#f2f2f2;}</style></defs><g id="Calque_2" data-name="Calque 2"><g id="Calque_1-2" data-name="Calque 1"><text class="cls-1" transform="translate(109.21 545.41)">Site d’exposition culturel</text><path class="cls-2" d="M713,141.18q15.21-32.39,8.05-60.88Q711.4,41.77,668.22,29q14.06-15.19,27.2-21.24,5.6-2.4,6.42-3.6a3.39,3.39,0,0,0,.23-3c-.4-1.22-2.07-1.46-5-.72Q683,3.95,658.7,26.69q-39.33-8.24-94.57,5.64A308.28,308.28,0,0,0,460.8,80.14,286.94,286.94,0,0,0,419.51,115a211.59,211.59,0,0,0-30.45,38.94,132.69,132.69,0,0,0-16.33,40.24q-4.37,20.21.68,37.82t20.42,26.41q13.92,7.92,28.16,4.34,38.31-9.62,64.15-41.2a145.92,145.92,0,0,0,19.59-31.24,164.43,164.43,0,0,0,11.55-34.07,152.09,152.09,0,0,0,3.62-33.56q-.15-16.36-2.55-24.94t-3.08-10.28c-.45-1.13-1.41-1.51-2.89-1.14s-1.79,3.27-.92,8.68q2.24,17.82-9.17,53.46a284.56,284.56,0,0,1-13.36,34.27,225.42,225.42,0,0,1-18.48,32.71,141.14,141.14,0,0,1-22.84,26.22q-12.48,11.1-25.33,14.32t-23.61-2q-13-6.41-17.9-23.81-8.75-30.82,13.35-70.41,22.38-40.38,66-72.45A294.3,294.3,0,0,1,564.37,37.73q56.29-14.14,87.56-4.37l-8,8.71Q612.42,77.82,582.82,129q-18.42,31.45-43.76,92.7l-2.15,5.26q-9-3.21-10.82-10.45t2-15.28q3.81-8,14.32-12.66c1.75-.94,2.53-1.79,2.33-2.57q-.59-2.34-8.87-.25t-15,11q-7.29,9.53-4.77,19.57,3,11.91,18.25,17.27l-25.87,62.12Q497,322.12,487.25,341.08a297.27,297.27,0,0,1-18.4,31.56,129.05,129.05,0,0,1-16.94,20.52A69.41,69.41,0,0,1,435,405.36a112.09,112.09,0,0,1-22.27,7.71q-13.66,3.44-25.24-.61T373.26,397.9l-.29-1.17a20.39,20.39,0,0,0,10.74-.21,15.28,15.28,0,0,0,9.29-6.06,11.38,11.38,0,0,0,1.79-9.64,8.75,8.75,0,0,0-6-6.68,14.88,14.88,0,0,0-8.24-.66q-8.64,2.16-13.36,8.07a19.09,19.09,0,0,0-3.85,7.43,20.29,20.29,0,0,0,.33,10.22,26.39,26.39,0,0,0,5.71,10.86q15,17.08,51.65,7.88Q496.45,399,563.79,237a171.93,171.93,0,0,0,34.92-5.3,178.37,178.37,0,0,0,69-34.72Q698.23,172.21,713,141.18Zm-66,57.18a136.37,136.37,0,0,1-25.18,17.37,116.91,116.91,0,0,1-26.45,10.38,142.66,142.66,0,0,1-28.68,4l22.6-57.33Q601.24,142,620.76,102T661.28,37q21.74,10.44,28,35.19,9.45,37.61-4.06,72.79A120.73,120.73,0,0,1,669,174.58,149.44,149.44,0,0,1,647.07,198.36Z"/><path class="cls-2" d="M140.5,353.37q0-13.9.81-22.34h-6.26q-1.91,18.8-5.86,30t-12.8,16.07q-8.85,4.9-26,4.9H70.5q-9.26,0-14-1.5a9.42,9.42,0,0,1-6.4-6.4q-1.63-4.9-1.64-14.7V224.28q0-10.08,1.64-14.85a10.2,10.2,0,0,1,6.4-6.53q4.76-1.77,14-2.05v-5.44q-6.25.27-15.65.54t-18.93.27Q25.3,196.22,16,196t-15-.54v5.44q9.25.28,14,2.05a10.18,10.18,0,0,1,6.4,6.53q1.64,4.77,1.64,14.85V359.36q0,9.79-1.64,14.7a9.79,9.79,0,0,1-6.4,6.54q-4.76,1.63-14,2.18v5.44q13.33-.54,28.59-.68t28.74-.13H80q13.6,0,31,.13t31.32.68q-1.08-10.34-1.5-20T140.5,353.37Z"/><path class="cls-2" d="M253,374.61a44.35,44.35,0,0,1-22.6,6q-10.35,0-20-7t-15.66-20.28q-6-13.35-6-31.87c0-3.27.09-6.53.27-9.8.15-2.75.38-5.26.67-7.63h85.12q0-30.76-13.48-45.34t-37.45-14.57q-18.53,0-32.41,9.39t-21.51,26.69q-7.64,17.29-7.63,41.26,0,20.7,7.49,36.63a58.23,58.23,0,0,0,21.52,24.92q14,9,33.63,9,13.62,0,24-5.31A52.58,52.58,0,0,0,266.05,373a56.11,56.11,0,0,0,9.8-17.43l-5.45-2.17Q263.32,368.63,253,374.61ZM200.54,261.86q9.68-12.53,22.2-12.53a19,19,0,0,1,15.12,6.81q5.85,6.81,8.58,18.11a89.76,89.76,0,0,1,2.18,24.65h-59.4C190.68,282.16,194.43,269.78,200.54,261.86Z"/><path class="cls-2" d="M735.72,379.51a13.21,13.21,0,0,1-6.67,1.63q-4.63,0-6.54-3.13c-1.27-2.08-1.9-5.31-1.9-9.67V292.63a100.92,100.92,0,0,0-2.18-22.47,30.7,30.7,0,0,0-9.26-15.93,34.19,34.19,0,0,0-13.07-7.49A61.89,61.89,0,0,0,677,244.16a74.63,74.63,0,0,0-22.47,3.13,59.72,59.72,0,0,0-16.2,7.49,43.48,43.48,0,0,0-9,8.17q-3.54,4.35-3.54,11.44a18.73,18.73,0,0,0,3.68,11.3q3.68,5,11.57,5a16,16,0,0,0,11.17-4q4.35-3.94,4.36-10.76a16.37,16.37,0,0,0-3.82-11.17,16.19,16.19,0,0,0-9-5.44,21.67,21.67,0,0,1,12.38-7.9,61.4,61.4,0,0,1,14.58-1.91,38,38,0,0,1,12.8,2,17.05,17.05,0,0,1,9.12,8q3.4,6,3.41,17.43V294q0,6.27-5.59,10.35a59.59,59.59,0,0,1-14.3,7.36q-8.72,3.26-18.38,6.67a123.75,123.75,0,0,0-18.38,8.17,43.62,43.62,0,0,0-14.3,12.25q-5.6,7.5-5.58,18.93,0,14.71,8,23.56t25.74,8.85a56,56,0,0,0,23-4.9q11-4.91,19.75-19.34a30.92,30.92,0,0,0,4.63,16.89q4.62,7.35,18.79,7.35,8.7,0,13.89-2.86a89.19,89.19,0,0,0,10.89-7.22l-3-4.62A32.25,32.25,0,0,1,735.72,379.51Zm-39.62-21q-6.83,11.18-14.71,15.93a30.77,30.77,0,0,1-16.07,4.77,21.34,21.34,0,0,1-15.53-6.13q-6.25-6.14-6.26-18.66,0-13.33,6.54-20.56a48.21,48.21,0,0,1,15.66-11.44q9.12-4.21,17.7-7.76t12.67-9.53Z"/><path class="cls-2" d="M795.77,362.9V174.71a77.41,77.41,0,0,1-13.21,2.86,114.68,114.68,0,0,1-15.12,1q-8.16,0-16.88-.82v5.72q12,0,16.34,5.86t4.36,18.11V362.9q0,11.43-4.77,15.52t-15.93,4.08v5.72q4.62-.25,14.16-.68t18.79-.4q9.53,0,18.93.4t14,.68V382.5q-11.18,0-15.93-4.08T795.77,362.9Z"/><path class="cls-2" d="M949.23,379.51a13.21,13.21,0,0,1-6.67,1.63q-4.63,0-6.53-3.13c-1.28-2.08-1.91-5.31-1.91-9.67V292.63a100.92,100.92,0,0,0-2.18-22.47,30.7,30.7,0,0,0-9.26-15.93,34.19,34.19,0,0,0-13.07-7.49,61.89,61.89,0,0,0-19.07-2.58,74.63,74.63,0,0,0-22.47,3.13,59.72,59.72,0,0,0-16.2,7.49,43.48,43.48,0,0,0-9,8.17q-3.54,4.35-3.54,11.44a18.73,18.73,0,0,0,3.68,11.3q3.68,5,11.57,5a16,16,0,0,0,11.17-4q4.35-3.94,4.36-10.76a16.34,16.34,0,0,0-12.8-16.61,21.67,21.67,0,0,1,12.39-7.9,61.26,61.26,0,0,1,14.57-1.91,37.94,37.94,0,0,1,12.8,2,17.05,17.05,0,0,1,9.12,8q3.4,6,3.41,17.43V294q0,6.27-5.59,10.35a59.59,59.59,0,0,1-14.3,7.36Q881,315,871.34,318.37A123.75,123.75,0,0,0,853,326.54a43.62,43.62,0,0,0-14.3,12.25q-5.58,7.5-5.58,18.93,0,14.71,8,23.56t25.74,8.85a56,56,0,0,0,23-4.9q11-4.91,19.75-19.34a31,31,0,0,0,4.63,16.89q4.62,7.35,18.79,7.35,8.7,0,13.89-2.86a89.19,89.19,0,0,0,10.89-7.22l-3-4.62A32.25,32.25,0,0,1,949.23,379.51Zm-39.62-21q-6.81,11.18-14.71,15.93a30.77,30.77,0,0,1-16.07,4.77,21.3,21.3,0,0,1-15.52-6.13Q857,367,857,354.45q0-13.33,6.54-20.56a48.21,48.21,0,0,1,15.66-11.44q9.12-4.21,17.7-7.76t12.67-9.53Z"/><path class="cls-2" d="M997,214.74a17.67,17.67,0,1,0-12.26-5.17A16.75,16.75,0,0,0,997,214.74Z"/><path class="cls-2" d="M1011.19,362.9V245A76.46,76.46,0,0,1,998,247.83a114.86,114.86,0,0,1-15.12,1q-8.18,0-16.88-.82v5.72q12,0,16.34,5.85t4.35,18.11V362.9q0,11.43-4.76,15.52T966,382.5v5.72q4.62-.25,14.16-.68t18.79-.4q9.52,0,18.93.4t14,.68V382.5q-11.16,0-15.93-4.08T1011.19,362.9Z"/><path class="cls-2" d="M1135.92,326.68a183.35,183.35,0,0,0-26.42-20.43q-9.26-6-17.16-11a55.31,55.31,0,0,1-12.8-10.89,21.2,21.2,0,0,1-4.9-14q0-10.35,6.4-15.66t15.93-5.31q12.26,0,19.88,6.13a38.73,38.73,0,0,1,11.58,15.66,88,88,0,0,1,5.58,19.61h6.27q0-17.7.27-28.19t.82-18.11h-6.27q-1.9,17.16-10.89,9.8A52,52,0,0,0,1113,247.7q-7.62-3.54-18.52-3.54a53.38,53.38,0,0,0-19.88,3.67,32.74,32.74,0,0,0-14.84,11.44q-5.58,7.77-5.59,20,0,11.16,5.32,19.06a56.89,56.89,0,0,0,13.88,14.16q8.6,6.27,18.39,12.53a180.55,180.55,0,0,1,22.06,16.07,24.86,24.86,0,0,1,8.71,19.61q0,14.43-8,20.15t-16.21,5.72q-13.62,0-21.24-6.4t-11.16-17.84a155.46,155.46,0,0,1-5.45-26.69h-6.27q0,20.7-.27,33.23t-.81,21.24h6.26q1.08-6.81,3.27-9.12t4.9-.14c1.81,1.46,3.68,2.82,5.58,4.09a51.75,51.75,0,0,0,5.58,3.26,54.61,54.61,0,0,0,10.22,2.86,63.44,63.44,0,0,0,11.3,1,59.56,59.56,0,0,0,23-4.36,40.94,40.94,0,0,0,17-12.8q6.53-8.44,6.53-21Q1146.81,337,1135.92,326.68Z"/></g></g></svg>